<?xml version="1.0" standalone="no"?>
<svg xmlns:xlink="http://www.w3.org/1999/xlink" id="wave" style="transform:rotate(0deg); transition: 0.3s" viewBox="0 0 1440 210" version="1.1" xmlns="http://www.w3.org/2000/svg"><defs><linearGradient id="sw-gradient-0" x1="0" x2="0" y1="1" y2="0"><stop stop-color="rgba(135, 96, 226, 1)" offset="0%"/><stop stop-color="rgba(135, 96, 226, 1)" offset="100%"/></linearGradient></defs><path style="transform:translate(0, 0px); opacity:1" fill="url(#sw-gradient-0)" d="M0,168L48,143.5C96,119,192,70,288,56C384,42,480,63,576,70C672,77,768,70,864,66.5C960,63,1056,63,1152,84C1248,105,1344,147,1440,164.5C1536,182,1632,175,1728,168C1824,161,1920,154,2016,157.5C2112,161,2208,175,2304,178.5C2400,182,2496,175,2592,175C2688,175,2784,182,2880,157.5C2976,133,3072,77,3168,52.5C3264,28,3360,35,3456,42C3552,49,3648,56,3744,66.5C3840,77,3936,91,4032,84C4128,77,4224,49,4320,63C4416,77,4512,133,4608,129.5C4704,126,4800,63,4896,42C4992,21,5088,42,5184,63C5280,84,5376,105,5472,126C5568,147,5664,168,5760,154C5856,140,5952,91,6048,63C6144,35,6240,28,6336,35C6432,42,6528,63,6624,77C6720,91,6816,98,6864,101.5L6912,105L6912,210L6864,210C6816,210,6720,210,6624,210C6528,210,6432,210,6336,210C6240,210,6144,210,6048,210C5952,210,5856,210,5760,210C5664,210,5568,210,5472,210C5376,210,5280,210,5184,210C5088,210,4992,210,4896,210C4800,210,4704,210,4608,210C4512,210,4416,210,4320,210C4224,210,4128,210,4032,210C3936,210,3840,210,3744,210C3648,210,3552,210,3456,210C3360,210,3264,210,3168,210C3072,210,2976,210,2880,210C2784,210,2688,210,2592,210C2496,210,2400,210,2304,210C2208,210,2112,210,2016,210C1920,210,1824,210,1728,210C1632,210,1536,210,1440,210C1344,210,1248,210,1152,210C1056,210,960,210,864,210C768,210,672,210,576,210C480,210,384,210,288,210C192,210,96,210,48,210L0,210Z"/></svg>